<svg width="53" height="52" viewBox="0 0 53 52" fill="none" xmlns="http://www.w3.org/2000/svg">
<rect x="3.5" y="3" width="46" height="46" rx="23" fill="#FE952D"/>
<rect x="3.5" y="3" width="46" height="46" rx="23" stroke="#ECE6F0" stroke-width="6"/>
<path d="M31.9776 23.0111C31.985 23.011 31.9925 23.011 32 23.011C34.4853 23.011 36.5 25.0294 36.5 27.5193C36.5 29.8398 34.75 31.7508 32.5 32M31.9776 23.0111C31.9924 22.8461 32 22.679 32 22.5101C32 19.4669 29.5376 17 26.5 17C23.6232 17 21.2623 19.2127 21.0204 22.0319M31.9776 23.0111C31.8753 24.1476 31.4286 25.1846 30.7428 26.0165M21.0204 22.0319C18.484 22.2737 16.5 24.4139 16.5 27.0183C16.5 29.4417 18.2178 31.4632 20.5 31.9273M21.0204 22.0319C21.1783 22.0169 21.3382 22.0092 21.5 22.0092C22.6258 22.0092 23.6647 22.3819 24.5005 23.011" stroke="white" stroke-width="1.5" stroke-linejoin="round"/>
<path d="M26.5 27V35M26.5 27C25.7998 27 24.4915 28.9943 24 29.5M26.5 27C27.2002 27 28.5085 28.9943 29 29.5" stroke="white" stroke-width="1.5" stroke-linejoin="round"/>
</svg>
